<?xml version="1.0" encoding="UTF-8"?><svg id="Layer_1" xmlns="http://www.w3.org/2000/svg" viewBox="0 0 583.73 541.65"><defs><style>.cls-1{fill:#fff;}</style></defs><path class="cls-1" d="M468.23,225.29c8.37-7.23,114.72-88.57,114.72-88.57,0,0,2.89-3.82-2.48-5.37-5.37-1.55-93.22-31.32-93.22-31.32,0,0-8.16-1.34-1.96-10.85,5.97-9.15,42.96-80.24,45.72-85.57,.11-.22,.17-.44,.19-.68l.04-.65c.07-1.12-.91-2.02-2.02-1.85l-178.9,27.64c-.14,.03-.28,.06-.42,.1-1.49,.44-10.85,3.08-21.08,2.42-11.16-.72-119.37-29.97-119.37-29.97,0,0-5.89-1.76-11.99,.72-6.1,2.48-76.48,34.42-76.48,34.42,0,0-5.89,3.2-13.44,3.82-6.83,.56-83.29,16.71-97.71,19.76-1.39,.29-2.41,1.47-2.51,2.88L0,161.57c-.05,.62,.09,1.23,.38,1.77l29.17,53.28c.36,.66,.94,1.17,1.63,1.44l78.51,31.04c.91,.36,1.61,1.12,1.89,2.06l87.13,289.24c.22,.74,.91,1.25,1.68,1.25h.59c.96,0,1.74-.77,1.76-1.73l.07-4.13c-.04-.3-.07-.57-.11-.87-1.93-7.19-27.84-104.95-24.22-152.16-.04-.39-.09-.77-.13-1.16l-44.62-143.95c-.05-.12-.09-.23-.13-.35-.54-1.17-3.97-7.73-14.49-11.4-10.65-3.71-64.15-24.12-72.65-27.37-.74-.28-1.34-.83-1.7-1.53l-20.73-40.67c-.12-.58-.22-1.13-.34-1.72l6.03-73.55c.12-1.44,1.18-2.62,2.6-2.89l80.07-15.05s11.78-1.86,20.46-6.3c8.68-4.44,69.66-31.11,69.66-31.11,0,0,4.44-2.38,7.96,.1,3.37,2.38,111.9,27.84,120.49,29.85,.34,.15,.67,.29,1.01,.43l58.31,37.92c.24,.12,.48,.23,.72,.35l120.68,41.03c2.84,.97,2.92,4.97,.11,6.03l-57.09,21.68-1.25,.86-30.06,33.49c-.72,.8-.99,1.91-.72,2.95l9.67,37.21c.14,.32,.27,.61,.41,.93,1.71,2.62,11.03,16.49,21.12,23.03,11.16,7.23,34.31,20.88,42.17,27.8,6.63,5.84,32.37,27.2,40.27,33.74,1.3,1.08,3.21,.95,4.37-.29h0c1.16-1.25,1.14-3.2-.05-4.42l-76.05-77.95c-.23-.34-.44-.67-.67-1.01-.82-1.96-2.6-8.16,4.33-14.15Zm-.85-152.41l-5.37,15.26c-.68,1.94-2.78,2.84-4.66,2l-2.37-1.06c-1.88-.84-2.26-2.76-.85-4.27l11.93-12.73c1.41-1.5,2-1.14,1.32,.8Zm9.86-37.72l-36.72,40.94c-2.75,3.07-8.23,4.61-12.17,3.42,0,0-25.9-7.77-31.79-10.66s-23.86-16.9-23.86-16.9c-3.25-2.53-2.58-5.11,1.49-5.74l100.64-15.5c4.07-.63,5.15,1.37,2.4,4.43Zm-27.93,172.78c-.19,.15-.31,.37-.33,.6l-.45,5.87c-.02,.25-.15,.47-.35,.62l-3.07,2.19c-.41,.29-1,.18-1.26-.25l-8.6-14.07c-.21-.34-.15-.77,.14-1.04l28.89-27.6c.11-.1,.23-.17,.38-.21l40-10.8c.91-.25,1.51,.91,.77,1.48l-56.12,43.21Z"/></svg>